# xmcd CD database file
#
# Track frame offsets:
#	150
#	12222
#	25132
#	39562
#	53752
#	67537
#	81192
#	95270
#	108895
#	122860
#	136735
#	151755
#	165535
#	178592
#	192442
#	207277
#
# Disc length: 2965 seconds
#
# Revision: 2
# Processed by: cddbd v1.5.2PL0 Copyright (c) Steve Scherf et al.
# Submitted via: CDex 1.79
#
DISCID=bf0b9310
DTITLE=Billie Holiday - Lover Man
DYEAR=1998
DGENRE=Jazz
TTITLE0=Billie's Blues
TTITLE1=A Fine Romance
TTITLE2=Easy to Love
TTITLE3=That's Life I Guess
TTITLE4=Moanin' Low
TTITLE5=They can't Take That Away from Me
TTITLE6=I'll get By
TTITLE7=Getting Some Fun Out of Life
TTITLE8=More Than You Know
TTITLE9=Gong Gone Blues
TTITLE10=Yesterdays
TTITLE11=The Men I Love
TTITLE12=Laughing at Life
TTITLE13=Tome on My Hands
TTITLE14=Georgia On My Mind
TTITLE15=Lover Man (Oh, Where Can You Be)
EXTD=YEAR: 1998
EXTT0=
EXTT1=
EXTT2=
EXTT3=
EXTT4=
EXTT5=
EXTT6=
EXTT7=
EXTT8=
EXTT9=
EXTT10=
EXTT11=
EXTT12=
EXTT13=
EXTT14=
EXTT15=
PLAYORDER=
